<svg id="图层_1" data-name="图层 1" xmlns="http://www.w3.org/2000/svg" viewBox="0 0 144 144"><defs><style>.cls-1{fill:#fff;}.cls-2{fill:none;stroke:#fff;stroke-miterlimit:10;}</style></defs><title>black head</title><circle cx="72" cy="72" r="71.5"/><path d="M100,36a71,71,0,1,1-71,71,71.08,71.08,0,0,1,71-71m0-1a72,72,0,1,0,72,72,72,72,0,0,0-72-72Z" transform="translate(-28 -35)"/><path class="cls-1" d="M68.39,101.52A15.31,15.31,0,1,1,83.7,86.22,15.31,15.31,0,0,1,68.39,101.52Z" transform="translate(-28 -35)"/><path d="M68.39,71.41a14.81,14.81,0,1,1-14.8,14.81,14.83,14.83,0,0,1,14.8-14.81m0-1A15.81,15.81,0,1,0,84.2,86.22,15.8,15.8,0,0,0,68.39,70.41Z" transform="translate(-28 -35)"/><path class="cls-1" d="M131.61,101.52a15.31,15.31,0,1,1,15.31-15.3A15.32,15.32,0,0,1,131.61,101.52Z" transform="translate(-28 -35)"/><path d="M131.61,71.41A14.81,14.81,0,1,1,116.8,86.22a14.83,14.83,0,0,1,14.81-14.81m0-1a15.81,15.81,0,1,0,15.8,15.81,15.81,15.81,0,0,0-15.8-15.81Z" transform="translate(-28 -35)"/><rect class="cls-1" x="64.6" y="105.87" width="7.78" height="11.29"/><path d="M99.88,141.37v10.29H93.1V141.37h6.78m1-1H92.1v12.29h8.78V140.37Z" transform="translate(-28 -35)"/><rect class="cls-1" x="71.62" y="105.87" width="7.78" height="11.29"/><path d="M106.9,141.37v10.29h-6.78V141.37h6.78m1-1H99.12v12.29h8.78V140.37Z" transform="translate(-28 -35)"/><line class="cls-2" x1="57.51" y1="51.22" x2="86.49" y2="51.22"/><line class="cls-1" x1="57.51" y1="51.22" x2="86.49" y2="51.22"/><polygon class="cls-1" points="64.95 84.85 72 72.64 79.05 84.85 64.95 84.85"/><path d="M100,108.64l6.18,10.71H93.82L100,108.64m0-2-7.92,13.71h15.84L100,106.64Z" transform="translate(-28 -35)"/></svg>